<?xml version="1.0" standalone="no"?>
<!DOCTYPE svg PUBLIC "-//W3C//DTD SVG 20010904//EN"
 "http://www.w3.org/TR/2001/REC-SVG-20010904/DTD/svg10.dtd">
<svg version="1.0" xmlns="http://www.w3.org/2000/svg"
 width="512.000000pt" height="512.000000pt" viewBox="0 0 512.000000 512.000000"
 preserveAspectRatio="xMidYMid meet">

<g transform="translate(0.000000,512.000000) scale(0.100000,-0.100000)"
fill="#000000" stroke="none">
<path d="M2403 4983 c15 -2 39 -2 55 0 15 2 2 4 -28 4 -30 0 -43 -2 -27 -4z"/>
<path d="M2663 4983 c15 -2 39 -2 55 0 15 2 2 4 -28 4 -30 0 -43 -2 -27 -4z"/>
<path d="M2288 4973 c12 -2 30 -2 40 0 9 3 -1 5 -23 4 -22 0 -30 -2 -17 -4z"/>
<path d="M2798 4973 c12 -2 30 -2 40 0 9 3 -1 5 -23 4 -22 0 -30 -2 -17 -4z"/>
<path d="M2203 4963 c9 -2 23 -2 30 0 6 3 -1 5 -18 5 -16 0 -22 -2 -12 -5z"/>
<path d="M2893 4963 c9 -2 23 -2 30 0 6 3 -1 5 -18 5 -16 0 -22 -2 -12 -5z"/>
<path d="M2148 4953 c7 -3 16 -2 19 1 4 3 -2 6 -13 5 -11 0 -14 -3 -6 -6z"/>
<path d="M2958 4953 c7 -3 16 -2 19 1 4 3 -2 6 -13 5 -11 0 -14 -3 -6 -6z"/>
<path d="M2088 4943 c6 -2 18 -2 25 0 6 3 1 5 -13 5 -14 0 -19 -2 -12 -5z"/>
<path d="M3008 4943 c6 -2 18 -2 25 0 6 3 1 5 -13 5 -14 0 -19 -2 -12 -5z"/>
<path d="M2038 4933 c7 -3 16 -2 19 1 4 3 -2 6 -13 5 -11 0 -14 -3 -6 -6z"/>
<path d="M3068 4933 c7 -3 16 -2 19 1 4 3 -2 6 -13 5 -11 0 -14 -3 -6 -6z"/>
<path d="M1998 4923 c7 -3 16 -2 19 1 4 3 -2 6 -13 5 -11 0 -14 -3 -6 -6z"/>
<path d="M3108 4923 c7 -3 16 -2 19 1 4 3 -2 6 -13 5 -11 0 -14 -3 -6 -6z"/>
<path d="M1918 4903 c7 -3 16 -2 19 1 4 3 -2 6 -13 5 -11 0 -14 -3 -6 -6z"/>
<path d="M3188 4903 c7 -3 16 -2 19 1 4 3 -2 6 -13 5 -11 0 -14 -3 -6 -6z"/>
<path d="M1878 4893 c7 -3 16 -2 19 1 4 3 -2 6 -13 5 -11 0 -14 -3 -6 -6z"/>
<path d="M3228 4893 c7 -3 16 -2 19 1 4 3 -2 6 -13 5 -11 0 -14 -3 -6 -6z"/>
<path d="M2312 4840 c0 -14 2 -19 5 -12 2 6 2 18 0 25 -3 6 -5 1 -5 -13z"/>
<path d="M1680 4830 c-8 -5 -10 -10 -5 -10 6 0 17 5 25 10 8 5 11 10 5 10 -5
0 -17 -5 -25 -10z"/>
<path d="M2377 4818 c-10 -11 -17 -22 -14 -24 2 -2 12 5 22 16 23 26 16 33 -8
8z"/>
<path d="M1630 4810 c-8 -5 -10 -10 -5 -10 6 0 17 5 25 10 8 5 11 10 5 10 -5
0 -17 -5 -25 -10z"/>
<path d="M1580 4790 c-8 -5 -10 -10 -5 -10 6 0 17 5 25 10 8 5 11 10 5 10 -5
0 -17 -5 -25 -10z"/>
<path d="M2555 4790 c-3 -6 1 -7 9 -4 18 7 21 14 7 14 -6 0 -13 -4 -16 -10z"/>
<path d="M2698 4793 c7 -3 16 -2 19 1 4 3 -2 6 -13 5 -11 0 -14 -3 -6 -6z"/>
<path d="M3096 4787 c3 -10 9 -15 12 -12 3 3 0 11 -7 18 -10 9 -11 8 -5 -6z"/>
<path d="M3520 4790 c8 -5 20 -10 25 -10 6 0 3 5 -5 10 -8 5 -19 10 -25 10 -5
0 -3 -5 5 -10z"/>
<path d="M1920 4785 c0 -5 5 -17 10 -25 5 -8 10 -10 10 -5 0 6 -5 17 -10 25
-5 8 -10 11 -10 5z"/>
<path d="M2647 4770 c-24 -19 -26 -19 -29 -3 -3 11 -6 5 -9 -15 l-6 -32 31 27
c17 15 35 31 41 35 5 5 6 8 3 8 -3 0 -17 -9 -31 -20z"/>
<path d="M2294 4748 l-19 -23 23 19 c21 18 27 26 19 26 -2 0 -12 -10 -23 -22z"/>
<path d="M2742 4750 c0 -14 2 -19 5 -12 2 6 2 18 0 25 -3 6 -5 1 -5 -13z"/>
<path d="M3358 4753 c7 -3 16 -2 19 1 4 3 -2 6 -13 5 -11 0 -14 -3 -6 -6z"/>
<path d="M1464 4734 c-18 -14 -18 -14 6 -3 31 14 36 19 24 19 -6 0 -19 -7 -30
-16z"/>
<path d="M1870 4743 c8 -3 22 -11 30 -17 13 -10 13 -9 1 7 -7 9 -21 17 -30 16
-13 0 -14 -1 -1 -6z"/>
<path d="M1813 4732 c-8 -5 -9 -13 -3 -22 8 -13 10 -12 10 2 0 9 8 19 18 21
12 3 13 5 2 6 -8 0 -20 -3 -27 -7z"/>
<path d="M2629 4702 c-22 -24 -25 -28 -6 -13 19 17 27 20 28 10 0 -8 5 -3 10
10 14 36 6 34 -32 -7z"/>
<path d="M3304 4720 c0 -13 4 -16 10 -10 7 7 7 13 0 20 -6 6 -10 3 -10 -10z"/>
<path d="M2305 4709 c-4 -6 -5 -12 -2 -15 2 -3 7 2 10 11 7 17 1 20 -8 4z"/>
<path d="M2731 4704 c0 -11 3 -14 6 -6 3 7 2 16 -1 19 -3 4 -6 -2 -5 -13z"/>
<path d="M2382 4690 c0 -14 2 -19 5 -12 2 6 2 18 0 25 -3 6 -5 1 -5 -13z"/>
<path d="M3365 4702 c-6 -4 -32 -34 -59 -67 l-49 -60 59 62 c32 34 66 64 74
66 13 5 13 5 0 6 -8 0 -20 -3 -25 -7z"/>
<path d="M1317 4655 c-42 -25 -77 -48 -77 -51 0 -4 10 0 23 8 12 8 48 30 80
48 49 27 66 40 54 40 -1 0 -37 -20 -80 -45z"/>
<path d="M1708 4693 c7 -3 16 -2 19 1 4 3 -2 6 -13 5 -11 0 -14 -3 -6 -6z"/>
<path d="M3720 4696 c0 -6 92 -57 97 -53 2 2 -19 16 -47 31 -27 15 -50 25 -50
22z"/>
<path d="M1936 4670 c4 -14 13 -38 20 -55 11 -24 13 -25 8 -5 -4 14 -13 39
-20 55 -11 24 -13 25 -8 5z"/>
<path d="M3253 4639 l-38 -50 -6 38 c-6 35 -6 34 -8 -16 0 -30 0 -52 2 -50 54
70 97 129 93 129 -3 0 -23 -23 -43 -51z"/>
<path d="M1891 4668 c-1 -22 -40 -34 -53 -17 -8 11 -9 11 -5 -1 2 -8 10 -16
18 -18 21 -4 53 23 46 39 -4 11 -6 10 -6 -3z"/>
<path d="M2721 4664 c0 -11 3 -14 6 -6 3 7 2 16 -1 19 -3 4 -6 -2 -5 -13z"/>
<path d="M3113 4640 c0 -25 2 -35 4 -22 2 12 2 32 0 45 -2 12 -4 2 -4 -23z"/>
<path d="M2511 4654 c0 -11 3 -14 6 -6 3 7 2 16 -1 19 -3 4 -6 -2 -5 -13z"/>
<path d="M3571 4667 c2 -1 13 -9 24 -17 19 -14 19 -14 6 3 -7 9 -18 17 -24 17
-6 0 -8 -1 -6 -3z"/>
<path d="M2631 4624 c0 -11 3 -14 6 -6 3 7 2 16 -1 19 -3 4 -6 -2 -5 -13z"/>
<path d="M2710 4624 c0 -8 5 -12 10 -9 6 4 8 11 5 16 -9 14 -15 11 -15 -7z"/>
<path d="M3837 4629 c12 -15 73 -53 73 -46 0 2 -19 17 -42 32 -24 16 -38 22
-31 14z"/>
<path d="M2371 4614 c0 -11 3 -14 6 -6 3 7 2 16 -1 19 -3 4 -6 -2 -5 -13z"/>
<path d="M3650 4626 c0 -3 9 -10 20 -16 11 -6 20 -8 20 -6 0 3 -9 10 -20 16
-11 6 -20 8 -20 6z"/>
<path d="M1520 4610 c8 -5 20 -10 25 -10 6 0 3 5 -5 10 -8 5 -19 10 -25 10 -5
0 -3 -5 5 -10z"/>
<path d="M2293 4585 c0 -22 2 -30 4 -17 2 12 2 30 0 40 -3 9 -5 -1 -4 -23z"/>
<path d="M1900 4606 c0 -2 7 -7 16 -10 8 -3 12 -2 9 4 -6 10 -25 14 -25 6z"/>
<path d="M2720 4579 c-22 -18 -22 -19 -3 -10 12 6 25 16 28 21 9 15 3 12 -25
-11z"/>
<path d="M1368 4574 c-38 -20 -36 -28 2 -9 17 9 30 18 30 20 0 7 -1 6 -32 -11z"/>
<path d="M1766 4570 c3 -14 11 -32 16 -40 6 -10 7 -7 2 10 -3 14 -11 32 -16
40 -6 10 -7 7 -2 -10z"/>
<path d="M2491 4574 c0 -11 3 -14 6 -6 3 7 2 16 -1 19 -3 4 -6 -2 -5 -13z"/>
<path d="M1566 4567 c3 -10 9 -15 12 -12 3 3 0 11 -7 18 -10 9 -11 8 -5 -6z"/>
<path d="M3920 4576 c0 -2 14 -14 30 -26 17 -12 30 -19 30 -16 0 2 -13 14 -30
26 -16 12 -30 19 -30 16z"/>
<path d="M1981 4554 c0 -11 3 -14 6 -6 3 7 2 16 -1 19 -3 4 -6 -2 -5 -13z"/>
<path d="M2359 4553 c-13 -16 -12 -17 4 -4 16 13 21 21 13 21 -2 0 -10 -8 -17
-17z"/>
<path d="M3234 4548 l-19 -23 23 19 c12 11 22 21 22 23 0 8 -8 2 -26 -19z"/>
<path d="M3500 4530 c-11 -22 -18 -40 -15 -40 2 0 14 18 25 40 11 22 18 40 15
40 -2 0 -14 -18 -25 -40z"/>
<path d="M3677 4560 c6 -8 13 -26 16 -40 l4 -25 2 26 c0 15 -7 33 -16 40 -16
12 -17 12 -6 -1z"/>
<path d="M1135 4534 l-30 -26 33 22 c17 12 32 23 32 26 0 7 -4 5 -35 -22z"/>
<path d="M1410 4550 c-9 -6 -10 -10 -3 -10 6 0 15 5 18 10 8 12 4 12 -15 0z"/>
<path d="M1473 4537 c12 -13 24 -22 26 -20 6 4 -30 43 -40 43 -5 0 2 -10 14
-23z"/>
<path d="M2528 4553 c6 -2 18 -2 25 0 6 3 1 5 -13 5 -14 0 -19 -2 -12 -5z"/>
<path d="M3595 4530 c-19 -36 -19 -36 3 -45 13 -5 14 -4 5 6 -9 9 -9 18 3 40
8 16 12 29 10 29 -3 0 -12 -13 -21 -30z"/>
<path d="M1310 4540 c-9 -6 -10 -10 -3 -10 6 0 15 5 18 10 8 12 4 12 -15 0z"/>
<path d="M2648 4543 c7 -3 16 -2 19 1 4 3 -2 6 -13 5 -11 0 -14 -3 -6 -6z"/>
<path d="M3745 4539 c-4 -6 -5 -12 -2 -15 2 -3 7 2 10 11 7 17 1 20 -8 4z"/>
<path d="M969 4523 c-13 -16 -12 -17 4 -4 9 7 17 15 17 17 0 8 -8 3 -21 -13z"/>
<path d="M3123 4505 c0 -22 2 -30 4 -17 2 12 2 30 0 40 -3 9 -5 -1 -4 -23z"/>
<path d="M1425 4500 c9 -16 18 -30 21 -30 2 0 -2 14 -11 30 -9 17 -18 30 -21
30 -2 0 2 -13 11 -30z"/>
<path d="M2031 4504 c0 -11 3 -14 6 -6 3 7 2 16 -1 19 -3 4 -6 -2 -5 -13z"/>
<path d="M3194 4498 l-19 -23 23 19 c21 18 27 26 19 26 -2 0 -12 -10 -23 -22z"/>
<path d="M1074 4488 l-19 -23 23 19 c21 18 27 26 19 26 -2 0 -12 -10 -23 -22z"/>
<path d="M1566 4494 c-9 -24 -7 -31 10 -38 14 -5 15 -4 5 8 -6 7 -9 21 -5 30
3 9 4 16 1 16 -3 0 -8 -7 -11 -16z"/>
<path d="M1880 4501 c0 -6 4 -13 10 -16 6 -3 7 1 4 9 -7 18 -14 21 -14 7z"/>
<path d="M4035 4490 c10 -11 20 -20 23 -20 3 0 -3 9 -13 20 -10 11 -20 20 -23
20 -3 0 3 -9 13 -20z"/>
<path d="M1310 4496 c0 -2 9 -6 20 -9 11 -3 18 -1 14 4 -5 9 -34 13 -34 5z"/>
<path d="M1492 4468 c-10 -30 -10 -31 3 -14 13 17 21 46 12 46 -1 0 -8 -15
-15 -32z"/>
<path d="M3635 4480 c-16 -7 -17 -9 -3 -9 9 -1 20 4 23 9 7 11 7 11 -20 0z"/>
<path d="M1800 4468 c0 -9 -6 -19 -12 -21 -10 -4 -10 -6 0 -6 14 -1 28 26 18
36 -3 4 -6 -1 -6 -9z"/>
<path d="M2350 4469 c-201 -23 -415 -84 -596 -169 -191 -90 -447 -281 -596
-445 -596 -656 -669 -1642 -177 -2375 264 -393 648 -668 1096 -785 430 -112
898 -72 1289 110 112 52 329 198 447 300 341 296 574 737 637 1203 16 118 14
388 -4 514 -75 528 -362 1001 -789 1301 -49 34 -96 68 -105 75 -16 13 -16 13
1 8 11 -4 16 -2 12 5 -4 6 -13 8 -20 5 -7 -2 -24 4 -37 15 -53 47 -296 146
-461 188 -212 55 -485 74 -697 50z m381 -130 c497 -50 946 -306 1241 -705 33
-44 73 -105 90 -135 35 -64 25 -52 -60 69 -200 285 -515 522 -853 640 -221 78
-495 113 -724 94 -151 -13 -324 -48 -454 -94 -129 -44 -334 -149 -441 -225
-124 -89 -328 -293 -410 -411 -87 -125 -96 -136 -65 -76 63 120 235 323 373
437 372 309 837 454 1303 406z m-151 -389 c189 -20 295 -61 394 -151 79 -72
147 -180 187 -297 32 -94 33 -102 34 -262 0 -143 -3 -175 -23 -244 -29 -102
-89 -217 -147 -283 -54 -62 -170 -142 -252 -174 l-60 -23 70 -135 c417 -807
474 -909 561 -996 52 -52 144 -100 224 -119 l57 -12 3 -47 3 -47 -274 0 -275
0 -222 428 c-122 235 -275 527 -339 649 l-116 223 -98 0 -99 0 4 -512 c5 -576
6 -588 73 -647 41 -35 56 -40 145 -43 l65 -3 3 -47 3 -48 -441 0 -441 0 3 48
3 47 80 5 c90 7 114 16 149 63 52 68 51 49 51 1242 0 1028 -1 1114 -17 1166
-30 96 -77 126 -208 132 l-55 2 -3 48 -3 47 433 0 c238 0 476 -5 528 -10z
m-1054 -498 c1 -50 11 -94 38 -172 58 -163 66 -198 66 -295 0 -152 -62 -340
-151 -462 -95 -128 -193 -209 -388 -323 -40 -23 -91 -58 -112 -77 -44 -40
-113 -170 -124 -232 -14 -82 -20 -29 -13 116 8 170 41 361 93 543 20 68 37
126 39 127 7 7 162 41 241 53 44 7 94 16 110 21 47 12 -138 -1 -239 -17 -49
-8 -90 -13 -92 -11 -6 6 75 197 92 216 2 2 63 14 136 26 100 17 120 23 83 24
-27 0 -84 -4 -125 -9 -41 -4 -76 -7 -78 -5 -2 2 21 43 50 92 l53 88 65 11 65
12 -52 1 c-29 1 -53 4 -53 8 0 4 19 30 42 57 71 87 73 93 5 24 -36 -38 -68
-68 -71 -68 -3 0 -15 18 -26 40 -28 55 -34 50 -9 -7 11 -25 18 -51 16 -57 -3
-6 -30 -49 -62 -94 l-58 -84 -34 61 c-19 34 -36 61 -38 61 -2 0 10 -32 27 -71
l32 -70 -55 -109 c-30 -60 -56 -109 -59 -109 -3 0 -25 26 -50 59 -66 88 -65
80 3 -33 l35 -57 -45 -113 c-24 -61 -60 -166 -79 -232 -19 -65 -36 -120 -38
-122 -6 -6 -26 252 -26 332 0 274 100 544 257 699 94 93 258 176 418 211 112
24 110 25 111 -53z m2172 53 c165 -34 329 -116 425 -211 157 -155 257 -425
257 -699 0 -80 -20 -338 -26 -332 -2 2 -19 57 -38 122 -19 66 -55 171 -79 232
l-45 113 35 57 c68 113 69 121 3 33 -25 -33 -47 -59 -50 -59 -3 0 -29 49 -59
109 l-55 109 32 70 c17 39 29 71 27 71 -2 0 -19 -27 -38 -61 l-34 -61 -58 84
c-32 45 -59 88 -62 94 -2 6 5 32 16 57 25 57 19 62 -9 7 -11 -22 -23 -40 -26
-40 -3 0 -35 30 -71 68 -68 69 -66 63 5 -24 23 -27 42 -53 42 -57 0 -4 -24 -7
-52 -8 l-53 -1 65 -12 65 -11 53 -88 c29 -49 52 -90 50 -92 -2 -2 -37 1 -78 5
-41 5 -97 9 -125 9 -37 -1 -17 -7 83 -24 73 -12 134 -24 136 -26 17 -19 98
-210 92 -216 -2 -2 -43 3 -92 11 -101 16 -286 29 -239 17 17 -5 66 -14 110
-21 79 -12 234 -46 241 -53 2 -1 19 -59 39 -127 52 -182 85 -373 93 -543 7
-145 1 -198 -13 -116 -11 62 -80 192 -124 232 -21 19 -72 54 -112 77 -195 114
-293 195 -388 323 -89 122 -151 310 -151 462 0 97 8 132 66 295 27 78 37 122
38 172 1 78 -3 76 104 53z m-2585 -1960 c81 -118 303 -340 427 -427 308 -217
699 -330 1090 -315 314 12 603 100 879 266 47 28 89 50 95 48 6 -2 -23 -27
-64 -56 -503 -354 -1203 -399 -1771 -115 -283 141 -578 421 -728 689 -29 51
-6 23 72 -90z m2922 18 c-32 -48 -84 -120 -115 -158 -69 -84 -243 -252 -247
-238 -2 5 49 61 113 124 108 107 223 246 274 332 12 21 25 36 27 33 3 -3 -21
-44 -52 -93z"/>
<path d="M2210 3200 l0 -590 88 0 c262 1 432 119 515 359 38 112 48 273 23
406 -33 173 -128 321 -241 374 -53 25 -170 41 -302 41 l-83 0 0 -590z"/>
<path d="M984 4418 c-91 -79 -200 -187 -257 -253 -28 -33 5 -3 74 66 68 70
153 152 189 183 36 31 63 56 59 56 -3 0 -32 -23 -65 -52z"/>
<path d="M1350 4468 c0 -9 41 -78 46 -78 3 0 -2 12 -10 28 -21 37 -36 58 -36
50z"/>
<path d="M3963 4425 c31 -25 59 -45 62 -45 4 0 -18 20 -48 45 -31 25 -59 45
-62 45 -4 0 18 -20 48 -45z"/>
<path d="M4085 4450 c10 -11 20 -20 23 -20 3 0 -3 9 -13 20 -10 11 -20 20 -23
20 -3 0 3 -9 13 -20z"/>
<path d="M1456 4447 c3 -10 9 -15 12 -12 3 3 0 11 -7 18 -10 9 -11 8 -5 -6z"/>
<path d="M1600 4446 c0 -3 9 -10 20 -16 11 -6 20 -8 20 -6 0 3 -9 10 -20 16
-11 6 -20 8 -20 6z"/>
<path d="M3666 4433 c-6 -14 -5 -15 5 -6 7 7 10 15 7 18 -3 3 -9 -2 -12 -12z"/>
<path d="M3443 4426 c-4 -7 -15 -16 -23 -19 -12 -4 -12 -6 2 -6 10 -1 22 8 28
19 12 22 6 28 -7 6z"/>
<path d="M3606 4427 c3 -10 9 -15 12 -12 3 3 0 11 -7 18 -10 9 -11 8 -5 -6z"/>
<path d="M3891 4430 c-1 -8 -10 -26 -22 -40 -37 -46 -60 -80 -56 -80 12 0 88
111 84 122 -4 9 -6 9 -6 -2z"/>
<path d="M1119 4403 l-24 -28 28 24 c25 23 32 31 24 31 -2 0 -14 -12 -28 -27z"/>
<path d="M4120 4427 c0 -2 15 -16 33 -33 l32 -29 -29 33 c-28 30 -36 37 -36
29z"/>
<path d="M1170 4401 c5 -11 15 -23 21 -27 6 -3 3 5 -6 20 -20 30 -30 35 -15 7z"/>
<path d="M1488 4403 c7 -3 16 -2 19 1 4 3 -2 6 -13 5 -11 0 -14 -3 -6 -6z"/>
<path d="M1688 4403 c7 -3 16 -2 19 1 4 3 -2 6 -13 5 -11 0 -14 -3 -6 -6z"/>
<path d="M809 4383 c-13 -16 -12 -17 4 -4 9 7 17 15 17 17 0 8 -8 3 -21 -13z"/>
<path d="M1520 4396 c0 -3 9 -10 20 -16 11 -6 20 -8 20 -6 0 3 -9 10 -20 16
-11 6 -20 8 -20 6z"/>
<path d="M1507 4361 c10 -19 24 -36 32 -39 8 -3 6 3 -5 15 -11 11 -25 28 -32
39 -7 10 -5 4 5 -15z"/>
<path d="M1059 4353 l-24 -28 28 24 c25 23 32 31 24 31 -2 0 -14 -12 -28 -27z"/>
<path d="M1415 4350 c9 -16 18 -30 21 -30 2 0 -2 14 -11 30 -9 17 -18 30 -21
30 -2 0 2 -13 11 -30z"/>
<path d="M1584 4356 c11 -9 27 -16 35 -15 14 0 14 1 1 6 -8 3 -24 10 -35 15
-20 9 -20 9 -1 -6z"/>
<path d="M3410 4367 c0 -7 152 -88 156 -84 2 2 -32 22 -76 46 -44 23 -80 40
-80 38z"/>
<path d="M3514 4361 c7 -11 46 -35 46 -28 0 3 -12 12 -26 22 -15 9 -23 12 -20
6z"/>
<path d="M3933 4333 c-33 -42 -46 -63 -40 -63 2 0 18 20 37 45 33 44 53 55 63
35 3 -6 4 -5 3 2 -5 27 -35 18 -63 -19z"/>
<path d="M4049 4355 c17 -33 31 -51 31 -40 0 6 -10 21 -21 35 -13 17 -17 18
-10 5z"/>
<path d="M4190 4370 c0 -3 58 -63 127 -135 70 -71 100 -98 66 -60 -63 71 -193
203 -193 195z"/>
<path d="M4340 4345 c13 -14 26 -25 28 -25 3 0 -5 11 -18 25 -13 14 -26 25
-28 25 -3 0 5 -11 18 -25z"/>
<path d="M1138 4353 c7 -3 16 -2 19 1 4 3 -2 6 -13 5 -11 0 -14 -3 -6 -6z"/>
<path d="M3635 4350 c-3 -6 1 -7 9 -4 18 7 21 14 7 14 -6 0 -13 -4 -16 -10z"/>
<path d="M1096 4331 c-17 -19 -17 -21 14 -60 32 -39 33 -40 56 -23 13 9 23 26
23 37 0 20 0 20 -9 0 -17 -44 -34 -46 -64 -9 -27 34 -27 36 -10 55 9 10 15 19
12 19 -3 0 -13 -9 -22 -19z"/>
<path d="M3590 4330 c-23 -7 -23 -8 -3 -9 12 -1 25 4 28 9 3 6 5 10 3 9 -2 -1
-14 -5 -28 -9z"/>
<path d="M1004 4308 l-19 -23 23 19 c21 18 27 26 19 26 -2 0 -12 -10 -23 -22z"/>
<path d="M1240 4283 c18 -24 35 -43 37 -43 7 0 -35 56 -54 71 -9 8 -2 -5 17
-28z"/>
<path d="M3636 4292 l-19 -27 24 22 c12 12 21 24 18 27 -2 2 -13 -8 -23 -22z"/>
<path d="M719 4293 c-13 -16 -12 -17 4 -4 9 7 17 15 17 17 0 8 -8 3 -21 -13z"/>
<path d="M3973 4284 c-12 -13 -18 -24 -14 -24 10 0 45 39 40 44 -2 3 -14 -6
-26 -20z"/>
<path d="M4380 4306 c0 -2 8 -10 18 -17 15 -13 16 -12 3 4 -13 16 -21 21 -21
13z"/>
<path d="M3784 4278 l-19 -23 23 19 c21 18 27 26 19 26 -2 0 -12 -10 -23 -22z"/>
<path d="M1446 4273 c-6 -14 -5 -15 5 -6 7 7 10 15 7 18 -3 3 -9 -2 -12 -12z"/>
<path d="M1528 4274 c-38 -20 -36 -28 2 -9 17 9 30 18 30 20 0 7 -1 6 -32 -11z"/>
<path d="M996 4251 c-3 -5 1 -8 9 -7 21 2 167 -175 160 -194 -5 -12 -4 -12 6
-3 14 14 18 8 -85 131 -69 81 -80 90 -90 73z"/>
<path d="M1470 4240 c-9 -6 -10 -10 -3 -10 6 0 15 5 18 10 8 12 4 12 -15 0z"/>
<path d="M3868 4220 c2 -16 6 -30 8 -30 2 0 4 14 4 30 0 17 -4 30 -8 30 -5 0
-7 -13 -4 -30z"/>
<path d="M4055 4239 c-4 -6 -5 -12 -2 -15 2 -3 7 2 10 11 7 17 1 20 -8 4z"/>
<path d="M1191 4221 l-24 -19 34 -41 c19 -22 38 -41 42 -41 15 0 67 41 67 52
0 6 -12 -1 -26 -16 -34 -33 -43 -32 -78 10 -28 34 -28 35 -10 49 11 8 25 12
32 10 7 -3 10 0 7 5 -9 14 -16 12 -44 -9z"/>
<path d="M649 4213 c-13 -16 -12 -17 4 -4 9 7 17 15 17 17 0 8 -8 3 -21 -13z"/>
<path d="M1301 4214 c0 -11 3 -14 6 -6 3 7 2 16 -1 19 -3 4 -6 -2 -5 -13z"/>
<path d="M3831 4204 c-24 -30 -26 -40 -9 -50 7 -5 8 -3 3 5 -4 8 2 25 14 42
27 36 20 38 -8 3z"/>
<path d="M1361 4200 c14 -31 19 -36 19 -24 0 6 -7 19 -16 30 -14 18 -14 18 -3
-6z"/>
<path d="M4020 4210 c-9 -6 -10 -10 -3 -10 6 0 15 5 18 10 8 12 4 12 -15 0z"/>
<path d="M3725 4180 c10 -11 20 -20 23 -20 3 0 -3 9 -13 20 -10 11 -20 20 -23
20 -3 0 3 -9 13 -20z"/>
<path d="M3862 4155 c0 -16 2 -22 5 -12 2 9 2 23 0 30 -3 6 -5 -1 -5 -18z"/>
<path d="M3952 4160 c0 -14 2 -19 5 -12 2 6 2 18 0 25 -3 6 -5 1 -5 -13z"/>
<path d="M4279 4142 c11 -16 28 -35 38 -43 9 -8 2 5 -17 29 -38 48 -52 57 -21
14z"/>
<path d="M1334 4138 l-19 -23 23 19 c21 18 27 26 19 26 -2 0 -12 -10 -23 -22z"/>
<path d="M3775 4140 c10 -11 20 -20 23 -20 3 0 -3 9 -13 20 -10 11 -20 20 -23
20 -3 0 3 -9 13 -20z"/>
<path d="M1429 4129 l-24 -20 28 17 c15 9 27 18 27 20 0 8 -8 4 -31 -17z"/>
<path d="M4199 4103 l-34 -37 32 25 c26 20 50 49 40 49 -2 0 -19 -17 -38 -37z"/>
<path d="M3690 4127 c0 -3 26 -24 58 -48 31 -23 52 -36 45 -28 -14 17 -103 83
-103 76z"/>
<path d="M784 4078 c-70 -76 -98 -108 -93 -108 3 0 36 34 73 75 72 80 86 103
20 33z"/>
<path d="M1279 4093 l-24 -28 28 24 c25 23 32 31 24 31 -2 0 -14 -12 -28 -27z"/>
<path d="M1379 4093 c-13 -16 -12 -17 4 -4 16 13 21 21 13 21 -2 0 -10 -8 -17
-17z"/>
<path d="M3860 4096 c0 -8 4 -17 9 -20 5 -4 7 3 4 14 -6 23 -13 26 -13 6z"/>
<path d="M654 4078 l-19 -23 23 19 c12 11 22 21 22 23 0 8 -8 2 -26 -19z"/>
<path d="M4486 4043 c26 -35 49 -63 51 -63 6 0 -31 50 -67 90 -17 19 -10 7 16
-27z"/>
<path d="M961 4073 c7 -12 15 -20 18 -17 3 2 -3 12 -13 22 -17 16 -18 16 -5
-5z"/>
<path d="M1304 4038 c-75 -64 -201 -187 -247 -243 -23 -27 14 7 83 76 69 70
148 145 175 168 28 22 47 41 44 41 -3 0 -28 -19 -55 -42z"/>
<path d="M4345 4060 c10 -11 20 -20 23 -20 3 0 -3 9 -13 20 -10 11 -20 20 -23
20 -3 0 3 -9 13 -20z"/>
<path d="M1205 4033 c-22 -19 -31 -31 -20 -25 19 9 74 63 64 62 -2 -1 -22 -17
-44 -37z"/>
<path d="M4105 4026 c-28 -24 -59 -46 -70 -49 -20 -5 -20 -5 0 -6 11 0 45 22
75 49 30 27 53 49 50 49 -3 0 -28 -19 -55 -43z"/>
<path d="M840 4050 c8 -5 20 -10 25 -10 6 0 3 5 -5 10 -8 5 -19 10 -25 10 -5
0 -3 -5 5 -10z"/>
<path d="M3895 4040 c10 -11 20 -20 23 -20 3 0 -3 9 -13 20 -10 11 -20 20 -23
20 -3 0 3 -9 13 -20z"/>
<path d="M4191 3984 c-50 -42 -91 -81 -91 -88 0 -7 10 -21 23 -32 22 -19 22
-19 5 2 -10 11 -18 25 -18 31 0 8 91 89 169 150 9 7 13 13 9 13 -3 0 -47 -34
-97 -76z"/>
<path d="M4310 4040 c6 -11 13 -20 16 -20 2 0 0 9 -6 20 -6 11 -13 20 -16 20
-2 0 0 -9 6 -20z"/>
<path d="M619 4033 c-29 -35 -41 -53 -36 -53 2 0 17 16 31 35 28 36 31 49 5
18z"/>
<path d="M797 4036 c-4 -10 12 -30 44 -57 40 -34 53 -39 62 -29 9 10 9 11 0 6
-8 -4 -31 8 -58 30 -34 29 -42 41 -33 51 7 8 7 13 0 13 -5 0 -12 -7 -15 -14z"/>
<path d="M891 4023 c7 -12 15 -20 18 -17 3 2 -3 12 -13 22 -17 16 -18 16 -5
-5z"/>
<path d="M3820 4029 c8 -9 65 -62 125 -119 89 -85 96 -90 35 -26 -41 42 -97
96 -125 119 -27 22 -43 34 -35 26z"/>
<path d="M4381 4010 c14 -31 19 -36 19 -24 0 6 -7 19 -16 30 -14 18 -14 18 -3
-6z"/>
<path d="M4332 3980 c0 -19 2 -27 5 -17 2 9 2 25 0 35 -3 9 -5 1 -5 -18z"/>
<path d="M559 3953 c-13 -16 -12 -17 4 -4 9 7 17 15 17 17 0 8 -8 3 -21 -13z"/>
<path d="M4401 3954 c0 -11 3 -14 6 -6 3 7 2 16 -1 19 -3 4 -6 -2 -5 -13z"/>
<path d="M4576 3918 c20 -32 39 -58 41 -58 7 0 -29 58 -55 88 -13 15 -6 1 14
-30z"/>
<path d="M724 3948 c-5 -7 -3 -8 5 -4 8 5 33 -8 64 -34 l52 -42 -50 46 c-53
49 -60 52 -71 34z"/>
<path d="M4018 3925 c17 -22 45 -56 62 -75 l32 -35 -30 40 c-17 22 -45 56 -62
75 l-32 35 30 -40z"/>
<path d="M936 3931 c-16 -18 -15 -20 14 -45 17 -14 39 -26 48 -25 11 0 8 4 -8
10 -13 6 -33 17 -42 26 -17 15 -17 17 -2 35 10 10 15 18 12 18 -3 0 -13 -8
-22 -19z"/>
<path d="M4281 3891 c-25 -24 -36 -39 -25 -33 22 12 80 70 73 74 -2 2 -24 -17
-48 -41z"/>
<path d="M526 3905 c-9 -14 -23 -37 -32 -52 l-16 -28 20 24 c24 29 55 81 49
81 -3 0 -12 -11 -21 -25z"/>
<path d="M4401 3904 c0 -11 3 -14 6 -6 3 7 2 16 -1 19 -3 4 -6 -2 -5 -13z"/>
<path d="M4381 3857 c-13 -21 -12 -21 5 -5 10 10 16 20 13 22 -3 3 -11 -5 -18
-17z"/>
<path d="M870 3847 c14 -16 34 -33 45 -39 21 -11 20 -10 -35 37 l-35 30 25
-28z"/>
<path d="M989 3798 c-24 -29 -36 -47 -26 -39 20 16 81 91 74 91 -2 0 -24 -24
-48 -52z"/>
<path d="M4158 3843 c7 -3 16 -2 19 1 4 3 -2 6 -13 5 -11 0 -14 -3 -6 -6z"/>
<path d="M4339 3809 l-24 -20 28 17 c15 9 27 18 27 20 0 8 -8 4 -31 -17z"/>
<path d="M4139 3801 c13 -12 28 -21 34 -21 12 0 11 0 -28 24 l-30 17 24 -20z"/>
<path d="M4650 3800 c6 -11 13 -20 16 -20 2 0 0 9 -6 20 -6 11 -13 20 -16 20
-2 0 0 -9 6 -20z"/>
<path d="M4085 3758 c22 -27 41 -48 43 -48 7 0 -36 56 -59 75 -12 11 -5 -1 16
-27z"/>
<path d="M643 3783 c9 -2 25 -2 35 0 9 3 1 5 -18 5 -19 0 -27 -2 -17 -5z"/>
<path d="M555 3749 c-20 -18 -40 -41 -46 -53 -6 -11 2 -6 17 13 15 18 41 42
58 52 17 10 26 19 19 19 -7 0 -28 -14 -48 -31z"/>
<path d="M420 3730 c-11 -22 -18 -40 -15 -40 2 0 14 18 25 40 11 22 18 40 15
40 -2 0 -14 -18 -25 -40z"/>
<path d="M730 3766 c0 -2 7 -7 16 -10 8 -3 12 -2 9 4 -6 10 -25 14 -25 6z"/>
<path d="M4570 3750 c6 -11 13 -20 16 -20 2 0 0 9 -6 20 -6 11 -13 20 -16 20
-2 0 0 -9 6 -20z"/>
<path d="M4690 3730 c11 -22 23 -40 25 -40 3 0 -4 18 -15 40 -11 22 -23 40
-25 40 -3 0 4 -18 15 -40z"/>
<path d="M791 3725 c9 -11 21 -29 27 -40 6 -11 12 -14 12 -8 0 7 -12 25 -27
41 -16 15 -21 19 -12 7z"/>
<path d="M4500 3729 c-22 -18 -22 -19 -3 -10 12 6 25 16 28 21 9 15 3 12 -25
-11z"/>
<path d="M982 3703 c-34 -45 -104 -149 -121 -180 -21 -40 -4 -25 22 20 14 23
50 77 81 120 58 80 69 104 18 40z"/>
<path d="M4428 3689 c-21 -11 -38 -22 -38 -24 0 -3 18 4 40 15 22 11 40 23 40
25 0 7 0 7 -42 -16z"/>
<path d="M546 3678 c-25 -35 -19 -65 20 -106 l37 -37 -32 38 c-36 43 -39 79
-11 107 11 11 16 20 11 20 -6 0 -17 -10 -25 -22z"/>
<path d="M648 3693 c7 -3 16 -2 19 1 4 3 -2 6 -13 5 -11 0 -14 -3 -6 -6z"/>
<path d="M4130 3696 c0 -2 8 -10 18 -17 15 -13 16 -12 3 4 -13 16 -21 21 -21
13z"/>
<path d="M4625 3650 c9 -16 18 -30 21 -30 2 0 -2 14 -11 30 -9 17 -18 30 -21
30 -2 0 2 -13 11 -30z"/>
<path d="M4555 3660 c-3 -6 1 -7 9 -4 18 7 21 14 7 14 -6 0 -13 -4 -16 -10z"/>
<path d="M376 3643 c-6 -14 -5 -15 5 -6 7 7 10 15 7 18 -3 3 -9 -2 -12 -12z"/>
<path d="M4730 3651 c0 -6 4 -13 10 -16 6 -3 7 1 4 9 -7 18 -14 21 -14 7z"/>
<path d="M765 3626 c10 -14 19 -26 22 -26 7 0 -17 39 -28 46 -6 3 -3 -5 6 -20z"/>
<path d="M4586 3637 c3 -10 9 -15 12 -12 3 3 0 11 -7 18 -10 9 -11 8 -5 -6z"/>
<path d="M481 3624 c0 -11 3 -14 6 -6 3 7 2 16 -1 19 -3 4 -6 -2 -5 -13z"/>
<path d="M4297 3628 c2 -5 10 -8 18 -8 8 0 16 3 18 8 3 4 -5 7 -18 7 -13 0
-21 -3 -18 -7z"/>
<path d="M4494 3624 c-18 -14 -18 -15 4 -4 12 6 22 13 22 15 0 8 -5 6 -26 -11z"/>
<path d="M842 3605 c0 -16 2 -22 5 -12 2 9 2 23 0 30 -3 6 -5 -1 -5 -18z"/>
<path d="M4205 3593 c15 -24 30 -43 32 -43 7 0 -31 61 -46 73 -8 7 -2 -7 14
-30z"/>
<path d="M4751 3615 c0 -5 8 -26 19 -45 11 -19 19 -30 19 -25 0 6 -8 26 -19
45 -11 19 -19 31 -19 25z"/>
<path d="M4270 3590 c6 -11 13 -20 16 -20 2 0 0 9 -6 20 -6 11 -13 20 -16 20
-2 0 0 -9 6 -20z"/>
<path d="M4582 3572 l-23 -37 26 28 c14 15 25 32 25 38 0 14 -3 11 -28 -29z"/>
<path d="M482 3580 c0 -14 2 -19 5 -12 2 6 2 18 0 25 -3 6 -5 1 -5 -13z"/>
<path d="M4425 3590 c-3 -6 1 -7 9 -4 18 7 21 14 7 14 -6 0 -13 -4 -16 -10z"/>
<path d="M4500 3583 c12 -25 25 -29 36 -11 5 7 3 8 -5 4 -7 -5 -19 0 -27 10
-14 18 -14 18 -4 -3z"/>
<path d="M791 3573 c0 -13 -10 -32 -21 -43 -11 -11 -16 -20 -10 -20 16 0 42
48 37 67 -4 14 -5 13 -6 -4z"/>
<path d="M336 3565 c-9 -26 -7 -32 5 -12 6 10 9 21 6 23 -2 3 -7 -2 -11 -11z"/>
<path d="M4378 3564 c-32 -17 -34 -24 -13 -64 22 -43 28 -37 7 7 -11 24 -13
37 -6 40 13 4 51 32 44 32 -3 0 -17 -7 -32 -15z"/>
<path d="M4456 3567 c3 -10 9 -15 12 -12 3 3 0 11 -7 18 -10 9 -11 8 -5 -6z"/>
<path d="M4614 3544 c-18 -14 -18 -15 4 -4 12 6 22 13 22 15 0 8 -5 6 -26 -11z"/>
<path d="M499 3525 c5 -11 17 -29 26 -40 l16 -20 -10 20 c-5 11 -17 29 -26 40
l-16 20 10 -20z"/>
<path d="M816 3523 c-6 -14 -5 -15 5 -6 7 7 10 15 7 18 -3 3 -9 -2 -12 -12z"/>
<path d="M4250 3520 c6 -11 13 -20 16 -20 2 0 0 9 -6 20 -6 11 -13 20 -16 20
-2 0 0 -9 6 -20z"/>
<path d="M4330 3480 c11 -22 23 -40 25 -40 3 0 -4 18 -15 40 -11 22 -23 40
-25 40 -3 0 4 -18 15 -40z"/>
<path d="M4494 3504 c-18 -14 -18 -15 4 -4 12 6 22 13 22 15 0 8 -5 6 -26 -11z"/>
<path d="M306 3495 c-9 -26 -7 -32 5 -12 6 10 9 21 6 23 -2 3 -7 -2 -11 -11z"/>
<path d="M698 3503 c6 -2 18 -2 25 0 6 3 1 5 -13 5 -14 0 -19 -2 -12 -5z"/>
<path d="M4800 3505 c0 -5 5 -17 10 -25 5 -8 10 -10 10 -5 0 6 -5 17 -10 25
-5 8 -10 11 -10 5z"/>
<path d="M789 3483 c-8 -9 -27 -24 -44 -35 -16 -10 -24 -18 -17 -18 12 0 93
69 81 70 -4 0 -13 -7 -20 -17z"/>
<path d="M569 3451 c13 -12 28 -21 34 -21 12 0 11 0 -28 24 l-30 17 24 -20z"/>
<path d="M4413 3463 c9 -2 25 -2 35 0 9 3 1 5 -18 5 -19 0 -27 -2 -17 -5z"/>
<path d="M4820 3455 c0 -5 5 -17 10 -25 5 -8 10 -10 10 -5 0 6 -5 17 -10 25
-5 8 -10 11 -10 5z"/>
<path d="M803 3415 l-17 -35 -245 -3 -246 -2 247 -3 248 -2 20 40 c11 22 18
40 15 40 -3 0 -13 -16 -22 -35z"/>
<path d="M4309 3411 l21 -41 268 2 267 3 -266 2 -267 3 -12 30 c-7 17 -17 33
-22 36 -5 3 0 -12 11 -35z"/>
<path d="M628 3423 c7 -3 16 -2 19 1 4 3 -2 6 -13 5 -11 0 -14 -3 -6 -6z"/>
<path d="M688 3423 c7 -3 16 -2 19 1 4 3 -2 6 -13 5 -11 0 -14 -3 -6 -6z"/>
<path d="M268 3373 c7 -3 16 -2 19 1 4 3 -2 6 -13 5 -11 0 -14 -3 -6 -6z"/>
<path d="M237 3313 c-25 -42 -81 -292 -102 -463 -21 -163 -16 -518 9 -675 15
-97 68 -323 87 -372 l9 -23 266 0 c250 0 266 1 259 18 -32 71 -98 285 -114
367 -74 373 -39 767 97 1103 l22 52 -265 0 c-145 0 -266 -3 -268 -7z m181 -64
c109 -53 169 -160 179 -321 3 -49 3 -88 0 -88 -3 0 -24 39 -47 86 -33 71 -38
90 -28 103 10 13 10 14 -2 4 -11 -10 -18 -6 -37 22 -13 19 -23 36 -23 39 0 3
-23 29 -51 58 -29 29 -46 44 -38 33 8 -11 16 -22 19 -25 3 -3 16 -18 28 -34
17 -23 20 -31 10 -38 -10 -6 -9 -8 4 -8 13 0 58 -59 58 -76 0 -3 -21 -3 -47 0
-35 4 -41 3 -23 -3 14 -5 37 -9 52 -10 23 -1 30 -9 48 -58 28 -75 60 -199 60
-232 -1 -23 -4 -20 -23 19 -20 38 -34 51 -102 86 -173 91 -248 219 -211 362 9
33 16 74 16 92 l0 31 48 -6 c26 -4 75 -20 110 -36z m-67 -494 c110 -38 197
-160 223 -310 6 -37 5 -39 -9 -20 -8 11 -34 44 -58 74 -23 29 -41 61 -39 70 2
12 1 13 -6 3 -6 -10 -13 -7 -28 9 -27 30 -134 112 -134 102 1 -4 17 -20 37
-35 24 -18 31 -29 22 -32 -38 -12 -41 -16 -8 -11 32 5 39 2 63 -29 l26 -35
-42 -10 -43 -10 50 4 50 5 42 -62 c39 -58 115 -209 109 -216 -2 -1 -21 15 -42
36 -32 32 -52 42 -111 55 -184 41 -282 146 -287 307 -2 43 -6 82 -10 89 -4 6
-4 16 -1 21 10 15 146 12 196 -5z m97 -516 c72 -36 141 -108 184 -192 16 -33
28 -61 26 -62 -2 -2 -28 17 -57 41 -71 59 -175 126 -230 147 -55 23 -64 16
-11 -8 45 -20 50 -31 19 -40 -11 -4 -19 -9 -16 -11 2 -2 18 1 35 7 26 9 35 7
61 -12 17 -13 31 -25 31 -28 0 -3 -21 -14 -46 -25 -62 -26 -50 -30 16 -5 l53
20 55 -53 c61 -60 155 -178 147 -186 -3 -3 -15 4 -28 16 -34 31 -71 42 -151
42 -90 0 -163 21 -218 63 -66 50 -103 106 -117 174 -6 32 -18 68 -26 80 -18
25 -13 29 49 49 76 23 155 18 224 -17z"/>
<path d="M4377 3253 c172 -448 174 -942 7 -1377 -19 -48 -34 -89 -34 -90 0 0
120 1 267 4 l266 5 18 53 c30 87 67 267 85 412 23 183 15 523 -15 693 -21 117
-62 293 -81 341 l-10 26 -264 0 -265 0 26 -67z m483 6 c0 -17 7 -58 16 -91 37
-143 -37 -269 -210 -361 -67 -35 -83 -50 -103 -87 l-24 -45 6 50 c7 57 27 134
56 212 18 45 24 53 47 54 15 1 38 5 52 10 18 6 12 7 -22 3 -27 -3 -48 -3 -48
0 0 17 45 76 58 76 13 0 14 2 4 8 -10 7 -7 15 10 38 12 16 25 31 28 34 3 3 11
14 19 25 8 11 -9 -4 -38 -33 -28 -29 -51 -55 -51 -58 0 -3 -10 -20 -23 -39
-19 -28 -26 -32 -37 -22 -12 10 -12 9 -2 -4 10 -14 6 -30 -23 -90 -19 -40 -35
-79 -35 -86 0 -7 -5 -13 -11 -13 -19 0 -4 166 21 232 41 110 126 186 232 207
75 15 78 14 78 -20z m102 -509 c-2 -8 -5 -52 -7 -96 -7 -166 -102 -269 -287
-311 -58 -13 -80 -24 -115 -56 l-43 -40 16 39 c29 70 55 118 97 182 l42 62 50
-5 50 -4 -43 10 -42 10 26 35 c24 31 31 34 63 29 33 -5 30 -1 -8 11 -9 3 -2
14 22 32 20 15 36 31 37 35 0 10 -107 -72 -134 -102 -15 -16 -22 -19 -28 -9
-7 10 -8 9 -6 -2 3 -15 -102 -163 -110 -155 -7 6 29 130 50 175 30 63 114 143
168 163 60 21 207 19 202 -3z m-39 -503 c36 -16 37 -17 23 -39 -8 -13 -20 -48
-27 -78 -15 -74 -29 -99 -84 -149 -69 -64 -122 -83 -245 -91 -108 -6 -120 -9
-157 -43 -80 -72 27 81 119 171 l55 53 53 -20 c66 -25 78 -21 16 5 -25 11 -46
22 -46 25 0 3 14 16 31 28 30 22 33 23 73 7 34 -13 38 -13 22 -1 -11 8 -23 15
-28 15 -21 0 -4 19 32 35 53 24 44 31 -11 8 -55 -21 -159 -88 -230 -147 -29
-24 -55 -43 -57 -41 -2 1 10 29 26 62 43 84 112 156 185 193 57 29 68 31 137
27 41 -2 92 -11 113 -20z"/>
<path d="M260 1733 c0 -5 80 -7 177 -5 329 4 360 8 91 10 -148 1 -268 -1 -268
-5z"/>
<path d="M4295 1669 c-20 -39 -32 -69 -28 -66 5 3 22 33 38 66 l29 61 250 3
251 2 -252 3 -253 2 -35 -71z"/>
<path d="M4845 1730 c3 -5 8 -10 11 -10 2 0 4 5 4 10 0 6 -5 10 -11 10 -5 0
-7 -4 -4 -10z"/>
<path d="M834 1635 c21 -38 43 -74 48 -80 13 -13 -61 126 -75 140 -6 6 7 -21
27 -60z"/>
<path d="M4387 1679 c7 -7 15 -10 18 -7 3 3 -2 9 -12 12 -14 6 -15 5 -6 -5z"/>
<path d="M290 1655 c0 -5 5 -17 10 -25 5 -8 10 -10 10 -5 0 6 -5 17 -10 25 -5
8 -10 11 -10 5z"/>
<path d="M668 1653 c6 -2 18 -2 25 0 6 3 1 5 -13 5 -14 0 -19 -2 -12 -5z"/>
<path d="M4315 1610 c-14 -27 -23 -50 -20 -50 2 0 16 23 30 50 14 28 23 50 20
50 -2 0 -16 -22 -30 -50z"/>
<path d="M4816 1645 c-9 -26 -7 -32 5 -12 6 10 9 21 6 23 -2 3 -7 -2 -11 -11z"/>
<path d="M579 1619 l-24 -20 28 17 c15 9 27 18 27 20 0 8 -8 4 -31 -17z"/>
<path d="M801 1595 c15 -16 31 -39 37 -50 6 -11 12 -14 12 -7 0 7 -17 30 -37
50 -21 21 -26 24 -12 7z"/>
<path d="M4361 1604 c-29 -37 -26 -48 17 -67 34 -16 27 -6 -14 19 -17 10 -17
12 -1 37 9 14 27 28 39 30 23 4 23 4 1 6 -13 0 -30 -10 -42 -25z"/>
<path d="M4451 1616 c10 -9 89 -46 89 -41 0 5 -75 45 -86 45 -4 0 -5 -2 -3 -4z"/>
<path d="M311 1605 c0 -5 8 -26 19 -45 11 -19 19 -30 19 -25 0 6 -8 26 -19 45
-11 19 -19 31 -19 25z"/>
<path d="M4240 1570 c-6 -11 -8 -20 -6 -20 3 0 10 9 16 20 6 11 8 20 6 20 -3
0 -10 -9 -16 -20z"/>
<path d="M4625 1570 c10 -11 20 -20 23 -20 3 0 -3 9 -13 20 -10 11 -20 20 -23
20 -3 0 3 -9 13 -20z"/>
<path d="M4786 1575 c-9 -26 -7 -32 5 -12 6 10 9 21 6 23 -2 3 -7 -2 -11 -11z"/>
<path d="M520 1565 c-7 -9 -11 -17 -9 -20 3 -2 10 5 17 15 14 24 10 26 -8 5z"/>
<path d="M735 1573 c38 -6 63 -28 68 -62 l4 -26 2 28 c2 37 -31 67 -71 66
l-33 -2 30 -4z"/>
<path d="M4591 1540 c14 -31 19 -36 19 -24 0 6 -7 19 -16 30 -14 18 -14 18 -3
-6z"/>
<path d="M596 1516 c-20 -18 -36 -40 -36 -47 0 -8 8 -2 18 12 9 15 28 36 42
48 14 11 22 20 18 21 -4 0 -23 -15 -42 -34z"/>
<path d="M4432 1530 c-7 -11 -8 -20 -3 -20 9 0 24 30 18 36 -1 2 -8 -6 -15
-16z"/>
<path d="M4486 1528 c-22 -32 -20 -43 12 -57 l27 -12 -24 20 c-24 18 -24 20
-8 45 21 32 14 35 -7 4z"/>
<path d="M4260 1510 c-6 -11 -8 -20 -6 -20 3 0 10 9 16 20 6 11 8 20 6 20 -3
0 -10 -9 -16 -20z"/>
<path d="M350 1516 c0 -11 50 -106 55 -106 3 0 -7 24 -21 53 -28 55 -34 65
-34 53z"/>
<path d="M4646 1503 c-6 -14 -5 -15 5 -6 7 7 10 15 7 18 -3 3 -9 -2 -12 -12z"/>
<path d="M927 1479 c10 -17 24 -36 32 -42 8 -7 2 7 -14 31 -32 49 -45 57 -18
11z"/>
<path d="M4185 1484 c-9 -15 -12 -23 -6 -20 11 7 35 46 28 46 -3 0 -12 -12
-22 -26z"/>
<path d="M4287 1483 c-4 -3 -7 -11 -7 -17 0 -6 4 -5 9 2 7 12 14 11 40 -2 17
-9 31 -14 31 -12 0 5 -55 36 -63 36 -2 0 -7 -3 -10 -7z"/>
<path d="M766 1442 c-22 -27 -24 -32 -7 -17 20 17 47 55 39 55 -2 0 -16 -17
-32 -38z"/>
<path d="M4736 1463 c-6 -14 -5 -15 5 -6 7 7 10 15 7 18 -3 3 -9 -2 -12 -12z"/>
<path d="M4566 1455 c-11 -8 -15 -15 -9 -15 6 0 16 7 23 15 16 19 11 19 -14 0z"/>
<path d="M4605 1430 c-9 -16 -13 -30 -11 -30 3 0 12 14 21 30 9 17 13 30 11
30 -3 0 -12 -13 -21 -30z"/>
<path d="M551 1435 c-1 -24 25 -65 41 -65 7 0 4 6 -5 13 -10 6 -21 26 -26 42
-7 21 -10 24 -10 10z"/>
<path d="M4134 1413 c-15 -20 -23 -33 -16 -29 13 8 56 66 49 66 -3 0 -17 -17
-33 -37z"/>
<path d="M4390 1435 c0 -2 18 -14 40 -25 22 -11 40 -18 40 -15 0 2 -18 14 -40
25 -22 11 -40 18 -40 15z"/>
<path d="M985 1400 c10 -11 20 -20 23 -20 3 0 -3 9 -13 20 -10 11 -20 20 -23
20 -3 0 3 -9 13 -20z"/>
<path d="M670 1380 c-8 -5 -10 -10 -5 -10 6 0 17 5 25 10 8 5 11 10 5 10 -5 0
-17 -5 -25 -10z"/>
<path d="M4480 1386 c0 -3 9 -10 20 -16 11 -6 20 -8 20 -6 0 3 -9 10 -20 16
-11 6 -20 8 -20 6z"/>
<path d="M4570 1370 c-6 -11 -8 -20 -6 -20 3 0 10 9 16 20 6 11 8 20 6 20 -3
0 -10 -9 -16 -20z"/>
<path d="M435 1350 c9 -16 18 -30 21 -30 2 0 -2 14 -11 30 -9 17 -18 30 -21
30 -2 0 2 -13 11 -30z"/>
<path d="M4675 1350 c-9 -16 -13 -30 -11 -30 3 0 12 14 21 30 9 17 13 30 11
30 -3 0 -12 -13 -21 -30z"/>
<path d="M804 1348 l-19 -23 23 19 c21 18 27 26 19 26 -2 0 -12 -10 -23 -22z"/>
<path d="M1025 1350 c10 -11 20 -20 23 -20 3 0 -3 9 -13 20 -10 11 -20 20 -23
20 -3 0 3 -9 13 -20z"/>
<path d="M4085 1350 c-10 -11 -16 -22 -14 -24 2 -2 12 7 22 20 22 29 17 32 -8
4z"/>
<path d="M540 1356 c0 -2 8 -10 18 -17 15 -13 16 -12 3 4 -13 16 -21 21 -21
13z"/>
<path d="M4155 1330 c-3 -6 1 -7 9 -4 18 7 21 14 7 14 -6 0 -13 -4 -16 -10z"/>
<path d="M592 1314 c10 -10 20 -16 22 -13 3 3 -5 11 -17 18 -21 13 -21 12 -5
-5z"/>
<path d="M4310 1327 c0 -2 15 -16 33 -33 l32 -29 -29 33 c-28 30 -36 37 -36
29z"/>
<path d="M1100 1265 c57 -66 118 -123 195 -187 28 -22 19 -12 -20 23 -38 35
-106 100 -149 144 -58 59 -65 64 -26 20z"/>
<path d="M4094 1278 c-41 -44 -131 -155 -102 -128 22 22 149 170 145 170 -1 0
-21 -19 -43 -42z"/>
<path d="M470 1290 c6 -11 13 -20 16 -20 2 0 0 9 -6 20 -6 11 -13 20 -16 20
-2 0 0 -9 6 -20z"/>
<path d="M1029 1265 c59 -67 68 -75 44 -40 -12 17 -36 44 -54 60 -25 22 -22
17 10 -20z"/>
<path d="M4010 1264 c-96 -104 -209 -201 -370 -317 -19 -13 -20 -15 -4 -8 39
19 182 130 261 203 80 74 170 168 161 168 -3 0 -24 -21 -48 -46z"/>
<path d="M4640 1290 c-6 -11 -8 -20 -6 -20 3 0 10 9 16 20 6 11 8 20 6 20 -3
0 -10 -9 -16 -20z"/>
<path d="M653 1293 c15 -2 37 -2 50 0 12 2 0 4 -28 4 -27 0 -38 -2 -22 -4z"/>
<path d="M919 1263 l-24 -28 28 24 c25 23 32 31 24 31 -2 0 -14 -12 -28 -27z"/>
<path d="M4117 1242 l-27 -28 35 -34 c19 -19 35 -31 35 -26 0 4 -14 19 -30 33
-30 25 -30 26 -13 45 10 11 27 24 38 29 14 5 15 8 4 8 -8 1 -27 -12 -42 -27z"/>
<path d="M4245 1248 c11 -6 31 -20 45 -32 14 -11 11 -6 -7 12 -18 17 -38 32
-45 32 -7 0 -4 -6 7 -12z"/>
<path d="M849 1203 l-34 -38 38 34 c34 33 42 41 34 41 -2 0 -19 -17 -38 -37z"/>
<path d="M527 1199 c10 -17 24 -36 32 -42 8 -7 2 7 -14 31 -32 49 -45 57 -18
11z"/>
<path d="M979 1203 l-24 -28 27 24 c16 13 32 20 39 16 8 -5 10 -4 5 3 -11 18
-20 15 -47 -15z"/>
<path d="M4585 1204 c-9 -15 -12 -23 -6 -20 11 7 35 46 28 46 -3 0 -12 -12
-22 -26z"/>
<path d="M4393 1175 c0 -22 2 -30 4 -17 2 12 2 30 0 40 -3 9 -5 -1 -4 -23z"/>
<path d="M1031 1187 c-1 -10 -13 -29 -27 -43 -14 -15 -20 -24 -13 -22 20 7 52
55 46 69 -4 10 -6 8 -6 -4z"/>
<path d="M924 1159 c-18 -20 -18 -21 1 -35 10 -8 26 -14 34 -13 9 0 5 5 -9 10
-34 14 -35 16 -15 39 10 11 16 20 13 20 -3 0 -13 -9 -24 -21z"/>
<path d="M784 1148 l-19 -23 23 19 c21 18 27 26 19 26 -2 0 -12 -10 -23 -22z"/>
<path d="M4540 1140 c-12 -16 -19 -30 -16 -30 2 0 14 14 26 30 12 17 19 30 16
30 -2 0 -14 -13 -26 -30z"/>
<path d="M721 1147 c2 -1 13 -9 24 -17 19 -14 19 -14 6 3 -7 9 -18 17 -24 17
-6 0 -8 -1 -6 -3z"/>
<path d="M4190 1125 c13 -14 26 -25 28 -25 3 0 -5 11 -18 25 -13 14 -26 25
-28 25 -3 0 5 -11 18 -25z"/>
<path d="M599 1099 c18 -25 52 -68 77 -95 28 -30 19 -17 -22 36 -78 100 -100
123 -55 59z"/>
<path d="M4028 1133 c7 -3 16 -2 19 1 4 3 -2 6 -13 5 -11 0 -14 -3 -6 -6z"/>
<path d="M4080 1105 c13 -14 26 -25 28 -25 3 0 -5 11 -18 25 -13 14 -26 25
-28 25 -3 0 5 -11 18 -25z"/>
<path d="M4377 1111 c-4 -17 -3 -21 5 -13 5 5 8 16 6 23 -3 8 -7 3 -11 -10z"/>
<path d="M846 1091 c-16 -16 -26 -35 -23 -43 4 -9 6 -8 6 4 1 9 15 28 32 42
17 14 27 26 22 26 -5 0 -22 -13 -37 -29z"/>
<path d="M1086 1103 c-6 -14 -5 -15 5 -6 7 7 10 15 7 18 -3 3 -9 -2 -12 -12z"/>
<path d="M720 1105 c0 -4 18 -27 40 -51 22 -24 40 -40 40 -36 -1 10 -80 96
-80 87z"/>
<path d="M890 1096 c0 -2 8 -10 18 -17 15 -13 16 -12 3 4 -13 16 -21 21 -21
13z"/>
<path d="M4253 1076 c34 -32 39 -32 63 -3 l19 22 -23 -19 c-22 -19 -23 -19
-55 3 l-32 22 28 -25z"/>
<path d="M4460 1033 c-29 -38 -125 -140 -214 -228 -88 -88 -129 -132 -91 -98
130 114 387 393 362 393 -3 0 -29 -30 -57 -67z"/>
<path d="M1210 1077 c0 -2 19 -19 43 -37 23 -19 36 -26 28 -17 -15 19 -71 61
-71 54z"/>
<path d="M4135 1060 c10 -11 20 -20 23 -20 3 0 -3 9 -13 20 -10 11 -20 20 -23
20 -3 0 3 -9 13 -20z"/>
<path d="M973 1043 c9 -2 25 -2 35 0 9 3 1 5 -18 5 -19 0 -27 -2 -17 -5z"/>
<path d="M1182 1022 c-11 -25 -11 -25 4 -10 9 9 15 21 13 27 -2 6 -10 -2 -17
-17z"/>
<path d="M4305 1003 c-21 -27 -28 -39 -16 -28 23 19 66 75 59 75 -2 0 -21 -21
-43 -47z"/>
<path d="M3860 1030 c-11 -7 -5 -8 20 -4 43 8 51 14 19 14 -13 0 -31 -5 -39
-10z"/>
<path d="M4198 1007 c18 -18 29 -37 25 -42 -5 -4 -2 -5 5 0 10 5 6 15 -19 41
-18 19 -35 34 -38 34 -3 0 10 -15 27 -33z"/>
<path d="M1389 1006 c13 -16 51 -41 51 -33 0 2 -15 14 -32 27 -21 15 -28 17
-19 6z"/>
<path d="M3819 1003 c-13 -16 -12 -17 4 -4 9 7 17 15 17 17 0 8 -8 3 -21 -13z"/>
<path d="M1339 972 c28 -26 41 -44 36 -52 -5 -9 -4 -11 3 -6 20 12 14 22 -35
61 l-48 37 44 -40z"/>
<path d="M1099 915 c-34 -41 -66 -72 -72 -68 -6 3 -7 1 -3 -5 4 -7 9 -12 11
-12 2 0 33 36 69 80 37 44 64 80 61 80 -2 0 -32 -34 -66 -75z"/>
<path d="M3770 969 c-14 -12 -34 -27 -44 -35 -11 -7 -18 -16 -15 -18 2 -2 24
13 49 35 46 39 55 55 10 18z"/>
<path d="M1231 943 c-17 -21 -31 -41 -31 -44 0 -4 12 -14 26 -24 21 -13 29
-14 38 -4 8 9 8 10 -1 5 -11 -6 -53 13 -53 24 0 3 13 21 30 40 l29 34 28 -24
28 -25 -24 28 c-14 15 -28 27 -32 27 -4 0 -21 -17 -38 -37z"/>
<path d="M1454 961 c7 -11 46 -35 46 -28 0 3 -12 12 -26 22 -15 9 -23 12 -20
6z"/>
<path d="M3820 954 c-11 -13 -10 -19 10 -37 l24 -22 -19 23 c-20 24 -14 37 20
45 19 4 19 5 -1 6 -12 0 -27 -6 -34 -15z"/>
<path d="M3981 948 c0 -14 -4 -35 -7 -45 -5 -17 -5 -17 6 0 6 10 9 30 7 45
l-4 27 -2 -27z"/>
<path d="M3894 940 c32 -50 13 -98 -26 -63 l-22 18 20 -27 c17 -24 20 -25 37
-11 23 21 22 56 -4 84 l-21 24 16 -25z"/>
<path d="M615 930 c10 -11 20 -20 23 -20 3 0 -3 9 -13 20 -10 11 -20 20 -23
20 -3 0 3 -9 13 -20z"/>
<path d="M810 856 c52 -53 122 -120 155 -149 71 -60 62 -51 -115 118 -113 109
-120 114 -40 31z"/>
<path d="M4494 928 l-19 -23 23 19 c12 11 22 21 22 23 0 8 -8 2 -26 -19z"/>
<path d="M3731 888 c2 -2 18 -14 34 -28 l30 -25 -24 28 c-14 15 -29 27 -34 27
-6 0 -8 -1 -6 -2z"/>
<path d="M1141 832 c-17 -22 -31 -44 -31 -49 0 -11 43 -53 54 -53 5 0 -3 9
-18 21 -33 26 -32 36 3 78 l28 34 21 -28 c12 -15 22 -23 22 -18 0 5 -11 20
-24 32 l-23 22 -32 -39z"/>
<path d="M1480 865 c0 -2 18 -14 40 -25 22 -11 40 -18 40 -15 0 2 -18 14 -40
25 -22 11 -40 18 -40 15z"/>
<path d="M695 840 c10 -11 20 -20 23 -20 3 0 -3 9 -13 20 -10 11 -20 20 -23
20 -3 0 3 -9 13 -20z"/>
<path d="M4093 853 c9 -2 23 -2 30 0 6 3 -1 5 -18 5 -16 0 -22 -2 -12 -5z"/>
<path d="M4414 838 l-19 -23 23 19 c21 18 27 26 19 26 -2 0 -12 -10 -23 -22z"/>
<path d="M1279 833 c-29 -35 -41 -53 -36 -53 2 0 17 16 31 35 28 36 31 49 5
18z"/>
<path d="M3620 830 c6 -11 13 -20 16 -20 2 0 0 9 -6 20 -6 11 -13 20 -16 20
-2 0 0 -9 6 -20z"/>
<path d="M1463 812 c-1 -22 0 -24 9 -8 6 10 6 22 2 26 -5 5 -10 -3 -11 -18z"/>
<path d="M3554 824 c-18 -14 -18 -15 4 -4 12 6 22 13 22 15 0 8 -5 6 -26 -11z"/>
<path d="M3820 790 c17 -22 37 -43 43 -47 6 -4 -6 14 -27 40 -21 26 -40 47
-43 47 -3 0 10 -18 27 -40z"/>
<path d="M3915 821 c-3 -5 -2 -12 3 -15 5 -3 9 1 9 9 0 17 -3 19 -12 6z"/>
<path d="M990 816 c0 -2 8 -10 18 -17 15 -13 16 -12 3 4 -13 16 -21 21 -21 13z"/>
<path d="M3950 810 c8 -5 20 -10 25 -10 6 0 3 5 -5 10 -8 5 -19 10 -25 10 -5
0 -3 -5 5 -10z"/>
<path d="M3646 787 c3 -10 9 -15 12 -12 3 3 0 11 -7 18 -10 9 -11 8 -5 -6z"/>
<path d="M4000 790 c8 -5 22 -9 30 -9 10 0 8 3 -5 9 -27 12 -43 12 -25 0z"/>
<path d="M1045 770 c10 -11 20 -20 23 -20 3 0 -3 9 -13 20 -10 11 -20 20 -23
20 -3 0 3 -9 13 -20z"/>
<path d="M1635 770 c10 -11 20 -20 23 -20 3 0 -3 9 -13 20 -10 11 -20 20 -23
20 -3 0 3 -9 13 -20z"/>
<path d="M3585 780 c27 -12 43 -12 25 0 -8 5 -22 9 -30 9 -10 0 -8 -3 5 -9z"/>
<path d="M3950 765 c13 -14 26 -25 28 -25 3 0 -5 11 -18 25 -13 14 -26 25 -28
25 -3 0 5 -11 18 -25z"/>
<path d="M1527 743 c-16 -36 -6 -28 19 14 10 16 13 16 30 3 18 -14 18 -14 5 3
-21 26 -36 21 -54 -20z"/>
<path d="M3424 754 c-18 -14 -18 -15 4 -4 12 6 22 13 22 15 0 8 -5 6 -26 -11z"/>
<path d="M3525 761 c-6 -10 35 -101 44 -101 4 0 17 10 31 21 l25 21 -27 -16
c-27 -16 -28 -16 -48 24 -11 22 -18 45 -15 50 3 6 4 10 1 10 -3 0 -7 -4 -11
-9z"/>
<path d="M1430 740 c-6 -11 -8 -20 -6 -20 3 0 10 9 16 20 6 11 8 20 6 20 -3 0
-10 -9 -16 -20z"/>
<path d="M1083 743 c9 -14 87 -77 87 -70 0 3 -21 22 -47 43 -26 21 -44 33 -40
27z"/>
<path d="M1669 708 c4 -28 6 -29 9 -9 2 13 0 27 -5 32 -6 6 -7 -3 -4 -23z"/>
<path d="M3975 693 c-43 -39 -44 -41 -9 -15 37 28 72 63 63 62 -2 -1 -26 -21
-54 -47z"/>
<path d="M3660 710 c6 -11 13 -20 16 -20 2 0 0 9 -6 20 -6 11 -13 20 -16 20
-2 0 0 -9 6 -20z"/>
<path d="M3870 726 c0 -2 8 -10 18 -17 15 -13 16 -12 3 4 -13 16 -21 21 -21
13z"/>
<path d="M840 695 c13 -14 26 -25 28 -25 3 0 -5 11 -18 25 -13 14 -26 25 -28
25 -3 0 5 -11 18 -25z"/>
<path d="M3424 708 c-4 -7 -3 -10 1 -5 5 4 17 -1 28 -10 19 -18 19 -17 6 5
-16 25 -25 28 -35 10z"/>
<path d="M4274 698 l-19 -23 23 19 c21 18 27 26 19 26 -2 0 -12 -10 -23 -22z"/>
<path d="M1214 688 l-19 -23 25 20 c14 11 27 21 29 22 2 2 0 3 -6 3 -5 0 -18
-10 -29 -22z"/>
<path d="M1495 690 c-8 -13 3 -30 18 -30 8 0 7 3 -2 9 -7 5 -10 14 -7 20 4 6
5 11 2 11 -3 0 -8 -4 -11 -10z"/>
<path d="M1385 660 c-9 -16 -13 -30 -11 -30 3 0 12 14 21 30 9 17 13 30 11 30
-3 0 -12 -13 -21 -30z"/>
<path d="M1556 675 c-11 -8 -15 -15 -9 -15 6 0 16 7 23 15 16 19 11 19 -14 0z"/>
<path d="M1790 683 c0 -6 8 -17 18 -24 16 -13 16 -13 2 6 -8 11 -16 22 -17 24
-2 2 -3 0 -3 -6z"/>
<path d="M1848 683 c7 -3 16 -2 19 1 4 3 -2 6 -13 5 -11 0 -14 -3 -6 -6z"/>
<path d="M3250 680 c-18 -12 -2 -12 25 0 13 6 15 9 5 9 -8 0 -22 -4 -30 -9z"/>
<path d="M3686 667 c3 -10 9 -15 12 -12 3 3 0 11 -7 18 -10 9 -11 8 -5 -6z"/>
<path d="M3319 653 c-13 -16 -12 -17 4 -4 16 13 21 21 13 21 -2 0 -10 -8 -17
-17z"/>
<path d="M3470 666 c0 -11 30 -66 36 -66 2 0 -3 15 -12 33 -19 36 -24 44 -24
33z"/>
<path d="M4229 653 c-13 -16 -12 -17 4 -4 16 13 21 21 13 21 -2 0 -10 -8 -17
-17z"/>
<path d="M1045 640 c10 -11 20 -20 23 -20 3 0 -3 9 -13 20 -10 11 -20 20 -23
20 -3 0 3 -9 13 -20z"/>
<path d="M1461 622 c-10 -24 -10 -25 3 -9 10 14 15 15 19 5 4 -9 6 -7 6 4 2
29 -15 29 -28 0z"/>
<path d="M1625 629 c-16 -10 -25 -19 -19 -19 7 0 22 9 35 20 30 24 23 24 -16
-1z"/>
<path d="M1980 640 c8 -5 20 -10 25 -10 6 0 3 5 -5 10 -8 5 -19 10 -25 10 -5
0 -3 -5 5 -10z"/>
<path d="M4015 604 c-33 -25 -64 -50 -70 -56 -12 -14 69 43 110 77 50 41 24
27 -40 -21z"/>
<path d="M1811 624 c0 -11 3 -14 6 -6 3 7 2 16 -1 19 -3 4 -6 -2 -5 -13z"/>
<path d="M3251 624 c0 -11 3 -14 6 -6 3 7 2 16 -1 19 -3 4 -6 -2 -5 -13z"/>
<path d="M3593 634 c-8 -4 -6 -15 9 -40 25 -42 34 -45 13 -4 -9 17 -13 35 -10
40 7 11 6 11 -12 4z"/>
<path d="M4179 613 c-13 -16 -12 -17 4 -4 16 13 21 21 13 21 -2 0 -10 -8 -17
-17z"/>
<path d="M1082 614 c4 -5 28 -25 54 -44 26 -18 45 -29 42 -24 -4 5 -28 25 -54
44 -26 18 -45 29 -42 24z"/>
<path d="M3302 590 c0 -19 2 -27 5 -17 2 9 2 25 0 35 -3 9 -5 1 -5 -18z"/>
<path d="M1306 601 c-4 -5 3 -7 14 -4 23 6 26 13 6 13 -8 0 -17 -4 -20 -9z"/>
<path d="M1962 596 c7 -8 15 -12 17 -11 5 6 -10 25 -20 25 -5 0 -4 -6 3 -14z"/>
<path d="M3018 603 c7 -3 16 -2 19 1 4 3 -2 6 -13 5 -11 0 -14 -3 -6 -6z"/>
<path d="M1483 555 c0 -27 2 -38 4 -22 2 15 2 37 0 50 -2 12 -4 0 -4 -28z"/>
<path d="M3250 528 l-1 -73 -32 40 c-53 65 -82 94 -41 40 21 -27 48 -62 60
-77 l21 -27 2 85 c1 46 -1 84 -4 84 -3 0 -5 -33 -5 -72z"/>
<path d="M3701 567 c-13 -21 -12 -21 5 -5 10 10 16 20 13 22 -3 3 -11 -5 -18
-17z"/>
<path d="M2021 564 c0 -11 3 -14 6 -6 3 7 2 16 -1 19 -3 4 -6 -2 -5 -13z"/>
<path d="M1320 566 c0 -3 9 -10 20 -16 11 -6 20 -8 20 -6 0 3 -9 10 -20 16
-11 6 -20 8 -20 6z"/>
<path d="M1430 555 c0 -8 4 -15 10 -15 5 0 7 7 4 15 -4 8 -8 15 -10 15 -2 0
-4 -7 -4 -15z"/>
<path d="M1573 530 c0 -25 2 -35 4 -22 2 12 2 32 0 45 -2 12 -4 2 -4 -23z"/>
<path d="M2432 538 c7 -15 15 -23 17 -17 2 6 -4 18 -13 27 -15 15 -15 15 -4
-10z"/>
<path d="M3069 532 c11 -16 28 -35 38 -43 9 -8 2 5 -17 29 -38 48 -52 57 -21
14z"/>
<path d="M3637 539 c7 -7 15 -10 18 -7 3 3 -2 9 -12 12 -14 6 -15 5 -6 -5z"/>
<path d="M3728 534 c-38 -20 -36 -28 2 -9 17 9 30 18 30 20 0 7 -1 6 -32 -11z"/>
<path d="M1870 530 c0 -5 5 -10 11 -10 5 0 7 5 4 10 -3 6 -8 10 -11 10 -2 0
-4 -4 -4 -10z"/>
<path d="M2353 524 c-3 -8 -2 -19 3 -24 5 -5 9 1 9 16 0 28 -3 30 -12 8z"/>
<path d="M3541 535 c-1 -5 3 -17 9 -25 5 -9 5 -19 -2 -27 -7 -9 -7 -13 0 -13
17 0 20 25 6 51 -7 13 -13 20 -13 14z"/>
<path d="M1920 520 c-23 -7 -23 -8 -3 -9 12 -1 25 4 28 9 3 6 5 10 3 9 -2 -1
-14 -5 -28 -9z"/>
<path d="M1239 502 c14 -11 38 -27 55 -37 l31 -17 -24 20 c-14 11 -38 27 -55
37 l-31 17 24 -20z"/>
<path d="M3841 485 c-66 -42 -80 -56 -26 -26 40 22 94 61 85 61 -3 0 -29 -16
-59 -35z"/>
<path d="M1490 494 c0 -12 65 -74 78 -74 4 0 -8 12 -25 26 -18 14 -37 33 -43
42 -5 9 -10 12 -10 6z"/>
<path d="M1854 479 c-3 -6 -3 -13 0 -16 3 -4 6 -1 6 5 0 6 7 9 15 6 8 -4 15
-4 15 -1 0 11 -30 16 -36 6z"/>
<path d="M3293 445 c0 -27 2 -38 4 -22 2 15 2 37 0 50 -2 12 -4 0 -4 -28z"/>
<path d="M3618 474 c-38 -20 -36 -28 2 -9 17 9 30 18 30 20 0 7 -1 6 -32 -11z"/>
<path d="M2380 470 c0 -5 4 -10 9 -10 6 0 13 5 16 10 3 6 -1 10 -9 10 -9 0
-16 -4 -16 -10z"/>
<path d="M1907 450 c3 -11 7 -20 9 -20 2 0 4 9 4 20 0 11 -4 20 -9 20 -5 0 -7
-9 -4 -20z"/>
<path d="M2718 463 c7 -3 16 -2 19 1 4 3 -2 6 -13 5 -11 0 -14 -3 -6 -6z"/>
<path d="M3135 450 c10 -11 20 -20 23 -20 3 0 -3 9 -13 20 -10 11 -20 20 -23
20 -3 0 3 -9 13 -20z"/>
<path d="M1331 447 c2 -1 13 -9 24 -17 19 -14 19 -14 6 3 -7 9 -18 17 -24 17
-6 0 -8 -1 -6 -3z"/>
<path d="M1741 423 c-10 -26 -10 -27 4 -9 8 11 15 23 15 28 0 15 -7 8 -19 -19z"/>
<path d="M1841 443 c-1 -6 -4 -20 -7 -30 -5 -17 -5 -17 6 0 6 10 9 23 6 30 -3
9 -5 9 -5 0z"/>
<path d="M2544 428 l-19 -23 23 19 c21 18 27 26 19 26 -2 0 -12 -10 -23 -22z"/>
<path d="M2655 430 c-4 -6 -10 -8 -15 -5 -6 4 -24 -36 -17 -41 1 -1 12 12 25
27 13 16 21 29 18 29 -2 0 -8 -5 -11 -10z"/>
<path d="M1380 416 c0 -2 7 -7 16 -10 8 -3 12 -2 9 4 -6 10 -25 14 -25 6z"/>
<path d="M3176 401 c23 -35 64 -82 64 -74 0 4 -17 26 -38 49 -20 22 -32 33
-26 25z"/>
<path d="M3704 404 c-18 -14 -18 -14 6 -3 31 14 36 19 24 19 -6 0 -19 -7 -30
-16z"/>
<path d="M2321 384 c0 -11 3 -14 6 -6 3 7 2 16 -1 19 -3 4 -6 -2 -5 -13z"/>
<path d="M2640 358 c-16 -22 -30 -50 -29 -62 1 -18 2 -17 9 5 4 14 16 38 26
54 16 24 19 25 24 9 6 -15 8 -14 12 9 7 38 -7 34 -42 -15z"/>
<path d="M2752 380 c0 -14 2 -19 5 -12 2 6 2 18 0 25 -3 6 -5 1 -5 -13z"/>
<path d="M1929 373 c-13 -16 -12 -17 4 -4 16 13 21 21 13 21 -2 0 -10 -8 -17
-17z"/>
<path d="M2540 379 c0 -5 5 -7 10 -4 6 3 10 8 10 11 0 2 -4 4 -10 4 -5 0 -10
-5 -10 -11z"/>
<path d="M1965 344 c-9 -14 -15 -27 -13 -30 2 -2 12 10 22 26 21 37 15 40 -9
4z"/>
<path d="M2541 344 c0 -11 3 -14 6 -6 3 7 2 16 -1 19 -3 4 -6 -2 -5 -13z"/>
<path d="M1550 330 c8 -5 20 -10 25 -10 6 0 3 5 -5 10 -8 5 -19 10 -25 10 -5
0 -3 -5 5 -10z"/>
<path d="M2301 333 c-1 -6 -4 -20 -7 -30 -5 -17 -5 -17 6 0 6 10 9 23 6 30 -3
9 -5 9 -5 0z"/>
<path d="M2741 324 c0 -11 3 -14 6 -6 3 7 2 16 -1 19 -3 4 -6 -2 -5 -13z"/>
<path d="M3550 330 c-8 -5 -10 -10 -5 -10 6 0 17 5 25 10 8 5 11 10 5 10 -5 0
-17 -5 -25 -10z"/>
<path d="M2661 314 c0 -11 3 -14 6 -6 3 7 2 16 -1 19 -3 4 -6 -2 -5 -13z"/>
<path d="M1620 300 c8 -5 20 -10 25 -10 6 0 3 5 -5 10 -8 5 -19 10 -25 10 -5
0 -3 -5 5 -10z"/>
<path d="M3480 300 c-8 -5 -10 -10 -5 -10 6 0 17 5 25 10 8 5 11 10 5 10 -5 0
-17 -5 -25 -10z"/>
<path d="M2370 289 c0 -5 5 -7 10 -4 6 3 10 8 10 11 0 2 -4 4 -10 4 -5 0 -10
-5 -10 -11z"/>
<path d="M2531 284 c0 -11 3 -14 6 -6 3 7 2 16 -1 19 -3 4 -6 -2 -5 -13z"/>
<path d="M1670 280 c8 -5 20 -10 25 -10 6 0 3 5 -5 10 -8 5 -19 10 -25 10 -5
0 -3 -5 5 -10z"/>
<path d="M2751 256 l-24 -31 28 27 c16 15 27 29 24 31 -2 3 -15 -10 -28 -27z"/>
<path d="M3430 280 c-8 -5 -10 -10 -5 -10 6 0 17 5 25 10 8 5 11 10 5 10 -5 0
-17 -5 -25 -10z"/>
<path d="M2399 263 c-13 -16 -12 -17 4 -4 16 13 21 21 13 21 -2 0 -10 -8 -17
-17z"/>
<path d="M2652 255 c0 -16 2 -22 5 -12 2 9 2 23 0 30 -3 6 -5 -1 -5 -18z"/>
<path d="M2281 254 c0 -11 3 -14 6 -6 3 7 2 16 -1 19 -3 4 -6 -2 -5 -13z"/>
<path d="M2521 244 c0 -11 3 -14 6 -6 3 7 2 16 -1 19 -3 4 -6 -2 -5 -13z"/>
<path d="M2601 244 c0 -11 3 -14 6 -6 3 7 2 16 -1 19 -3 4 -6 -2 -5 -13z"/>
<path d="M2700 220 c-9 -6 -10 -10 -3 -10 6 0 15 5 18 10 8 12 4 12 -15 0z"/>
<path d="M2568 213 c7 -3 16 -2 19 1 4 3 -2 6 -13 5 -11 0 -14 -3 -6 -6z"/>
<path d="M3238 213 c7 -3 16 -2 19 1 4 3 -2 6 -13 5 -11 0 -14 -3 -6 -6z"/>
<path d="M1978 183 c7 -3 16 -2 19 1 4 3 -2 6 -13 5 -11 0 -14 -3 -6 -6z"/>
<path d="M3128 183 c7 -3 16 -2 19 1 4 3 -2 6 -13 5 -11 0 -14 -3 -6 -6z"/>
<path d="M2028 173 c7 -3 16 -2 19 1 4 3 -2 6 -13 5 -11 0 -14 -3 -6 -6z"/>
<path d="M3078 173 c7 -3 16 -2 19 1 4 3 -2 6 -13 5 -11 0 -14 -3 -6 -6z"/>
<path d="M2068 163 c6 -2 18 -2 25 0 6 3 1 5 -13 5 -14 0 -19 -2 -12 -5z"/>
<path d="M3028 163 c6 -2 18 -2 25 0 6 3 1 5 -13 5 -14 0 -19 -2 -12 -5z"/>
<path d="M2118 153 c6 -2 18 -2 25 0 6 3 1 5 -13 5 -14 0 -19 -2 -12 -5z"/>
<path d="M2978 153 c6 -2 18 -2 25 0 6 3 1 5 -13 5 -14 0 -19 -2 -12 -5z"/>
<path d="M2188 143 c7 -3 16 -2 19 1 4 3 -2 6 -13 5 -11 0 -14 -3 -6 -6z"/>
<path d="M2918 143 c7 -3 16 -2 19 1 4 3 -2 6 -13 5 -11 0 -14 -3 -6 -6z"/>
<path d="M2258 133 c6 -2 18 -2 25 0 6 3 1 5 -13 5 -14 0 -19 -2 -12 -5z"/>
<path d="M2838 133 c6 -2 18 -2 25 0 6 3 1 5 -13 5 -14 0 -19 -2 -12 -5z"/>
<path d="M2363 123 c15 -2 37 -2 50 0 12 2 0 4 -28 4 -27 0 -38 -2 -22 -4z"/>
<path d="M2713 123 c15 -2 39 -2 55 0 15 2 2 4 -28 4 -30 0 -43 -2 -27 -4z"/>
</g>
</svg>
